<?xml version="1.0" encoding="UTF-8"?> <svg xmlns="http://www.w3.org/2000/svg" width="467" height="165" viewBox="0 0 467 165" fill="none"> <path d="M143.243 0.000732422H32.0691L24.0469 21.9936H135.221L143.243 0.000732422Z" fill="#46ABF8"></path> <path d="M131.208 33.001H20.0339L12.0117 54.9938H123.186L131.208 33.001Z" fill="#46ABF8"></path> <path d="M119.175 66.0007H8.02221L0 87.9936H111.174L119.175 66.0007Z" fill="#46ABF8"></path> <path d="M400.06 142.837H419.965C427.516 142.837 432.084 141.016 435.302 136.905C438.038 133.31 439.413 128.865 439.184 124.356C439.184 117.503 436.889 112.706 432.32 109.366C429.575 107.224 425.885 106.175 419.729 106.175H400.06V142.837ZM373.762 165.001V33.001H459.776L452.226 55.1651H400.06V84.3747H421.338C438.498 84.3747 447.421 88.4863 453.513 93.7543C458.317 97.8659 466.554 106.989 466.554 125.041C466.554 143.094 457.974 152.666 451.003 157.698C442.766 163.395 434.058 165.001 416.447 165.001H373.762ZM297.594 165.001V55.1651H259.392V33.001H365.526L357.975 55.1651H324.128V165.001H297.594ZM191.675 85.6595H206.54C209.61 85.8732 212.695 85.6424 215.699 84.9743C221.877 83.154 225.759 77.6719 225.759 70.1339C225.759 61.2255 221.641 57.2852 215.699 55.5292C212.405 54.7547 209.019 54.4447 205.639 54.6083H191.675V85.6595ZM191.911 108.509V143.308H210.208C215.699 143.308 220.74 142.837 224.386 139.432C226.195 137.702 227.603 135.598 228.511 133.267C229.419 130.937 229.805 128.436 229.641 125.94C229.766 121.868 228.57 117.865 226.231 114.526C222.327 109.73 217.522 108.595 209.286 108.595L191.911 108.509ZM234.232 94.6537V95.1248C238.688 96.8348 242.855 99.2182 246.587 102.192C254.352 108.616 257.784 117.032 257.784 127.996C257.784 146.049 248.174 159.069 232.408 163.18C227.604 164.551 222.563 165.001 213.104 165.001H165.378V33.001H207.698C214.384 32.7583 221.073 33.37 227.604 34.8212C242.919 38.9328 252.979 49.4474 252.979 66.108C253.093 70.0624 252.402 73.9987 250.95 77.6793C249.497 81.3599 247.313 84.7084 244.528 87.5226C241.587 90.5226 238.09 92.9228 234.232 94.5894" fill="white"></path> </svg> 